<?xml version="1.0" encoding="UTF-8" standalone="no"?>
<!-- Created with Inkscape (http://www.inkscape.org/) -->

<svg
   xmlns:dc="http://purl.org/dc/elements/1.1/"
   xmlns:cc="http://creativecommons.org/ns#"
   xmlns:rdf="http://www.w3.org/1999/02/22-rdf-syntax-ns#"
   xmlns:svg="http://www.w3.org/2000/svg"
   xmlns="http://www.w3.org/2000/svg"
   xmlns:sodipodi="http://sodipodi.sourceforge.net/DTD/sodipodi-0.dtd"
   xmlns:inkscape="http://www.inkscape.org/namespaces/inkscape"
   version="1.1"
   id="svg869"
   width="189.1201"
   height="254.40001"
   viewBox="0 0 189.12011 254.40001"
   sodipodi:docname="pop_mugshot.svg"
   inkscape:version="0.92.4 5da689c313, 2019-01-14">
  <metadata
     id="metadata875">
    <rdf:RDF>
      <cc:Work
         rdf:about="">
        <dc:format>image/svg+xml</dc:format>
        <dc:type
           rdf:resource="http://purl.org/dc/dcmitype/StillImage" />
        <dc:title></dc:title>
      </cc:Work>
    </rdf:RDF>
  </metadata>
  <defs
     id="defs873" />
  <sodipodi:namedview
     pagecolor="#ffffff"
     bordercolor="#666666"
     borderopacity="1"
     objecttolerance="10"
     gridtolerance="10"
     guidetolerance="10"
     inkscape:pageopacity="0"
     inkscape:pageshadow="2"
     inkscape:window-width="1600"
     inkscape:window-height="836"
     id="namedview871"
     showgrid="false"
     fit-margin-top="0"
     fit-margin-left="0"
     fit-margin-right="0"
     fit-margin-bottom="0"
     inkscape:zoom="1.8289162"
     inkscape:cx="90.959243"
     inkscape:cy="88.850967"
     inkscape:window-x="0"
     inkscape:window-y="27"
     inkscape:window-maximized="1"
     inkscape:current-layer="g939" />
  <g
     id="g939"
     transform="translate(-21.5245,-15.035547)">
    <path
       style="fill:#a7a7a7;stroke-width:0.31999999"
       d="m 21.5245,142.23555 c 0,-127.200003 0,-127.200003 94.56,-127.200003 94.56,0 90.18582,0 90.18582,127.200003 0,127.19999 4.37418,127.19999 -90.18582,127.19999 -94.56,0 -94.56,0 -94.56,-127.19999 z m 93.6,59.05539 c 7.27033,-0.53959 15.75436,-2.92132 20.4957,-5.75379 3.5749,-2.13564 6.69906,-4.65022 8.09651,-6.51674 0.58972,-0.78765 2.04819,-2.30592 3.24106,-3.37391 2.25285,-2.01703 3.84673,-4.29801 3.84673,-5.50499 0,-0.38504 -0.21403,-1.3674 -0.47563,-2.18302 -0.66036,-2.05892 -2.08265,-9.70685 -1.86937,-10.05195 0.0962,-0.15567 0.5924,0.19666 1.10263,0.78298 0.56887,0.65371 0.21498,-0.10979 -0.91497,-1.97398 -1.84266,-3.04 -1.84266,-3.04 -1.84179,-10.24 3.2e-4,-3.96 0.12709,-8.244 0.28135,-9.52 0.20261,-1.6759 0.18015,-2.32 -0.0809,-2.32 -0.19875,0 -0.36135,0.38734 -0.36135,0.86074 0,2.32617 -1.09478,6.65093 -2.41384,9.53549 -0.40336,0.88208 -0.80366,2.03577 -0.88955,2.56377 -0.24425,1.50151 -0.99763,3.28642 -1.72107,4.07753 -1.00549,1.09955 -1.71635,2.69389 -1.78958,4.01374 -0.0542,0.9771 -0.1985,1.20751 -0.81042,1.2942 -0.48194,0.0683 -0.68418,0.26257 -0.57351,0.55098 0.19705,0.5135 -0.35122,2.31795 -0.91869,3.02355 -0.35062,0.43598 -0.75668,1.79192 -1.27979,4.27353 -0.1496,0.70966 -0.33157,0.87718 -0.81541,0.75065 -0.42414,-0.11091 -0.87889,0.14144 -1.42549,0.79103 -0.44146,0.52464 -0.80265,1.08685 -0.80265,1.24935 0,0.16249 -0.21044,0.29544 -0.46764,0.29544 -0.45352,0 -3.21863,2.54975 -2.78727,2.57018 0.57272,0.0271 -1.12216,0.94982 -1.74469,0.94982 -0.44322,0 -0.79722,0.25189 -0.92652,0.65928 -0.15434,0.48629 -0.43288,0.63414 -1.06156,0.5635 -0.54569,-0.0613 -0.82354,0.0469 -0.77232,0.30072 0.053,0.26259 -0.35232,0.3965 -1.2,0.3965 -1.30514,0 -1.81537,0.68609 -0.8,1.07572 0.264,0.10131 0.48,0.33272 0.48,0.51424 0,0.18152 -0.216,0.33004 -0.48,0.33004 -0.264,0 -0.48,-0.22601 -0.48,-0.50225 0,-0.33729 -0.23542,-0.46867 -0.71673,-0.4 -0.88352,0.12605 -1.14933,1.12337 -0.34154,1.28145 0.31805,0.0622 -0.71623,0.0837 -2.2984,0.0478 -2.8348,-0.0644 -2.86554,-0.057 -2.11223,0.51123 0.52218,0.39389 0.63167,0.62088 0.34548,0.71628 -0.7884,0.2628 -2.28724,-0.13411 -2.47167,-0.65452 -0.39651,-1.11888 -0.74339,-1.32157 -1.47425,-0.86143 -0.37986,0.23916 -1.03574,0.53822 -1.45751,0.66459 -0.66765,0.20003 -0.74398,0.14229 -0.59004,-0.44636 0.20611,-0.78818 -0.29839,-1.22947 -0.81499,-0.71288 -0.5361,0.5361 -1.82812,0.44145 -1.82812,-0.13392 0,-0.26952 -0.21517,-0.57261 -0.47816,-0.67353 -0.26299,-0.10092 -0.39629,-0.31597 -0.29622,-0.47789 0.10008,-0.16192 0.0632,-0.27022 -0.0818,-0.24068 -0.53198,0.10832 -2.29762,-0.73599 -2.46808,-1.18022 -0.2154,-0.56131 -1.20745,-0.59789 -1.74113,-0.0642 -0.31124,0.31124 -0.54187,0.21798 -1.104,-0.44642 -0.39081,-0.46192 -1.14257,-0.93541 -1.67057,-1.0522 -0.528,-0.1168 -1.57495,-0.50618 -2.32656,-0.8653 -2.34854,-1.12214 -2.64714,-0.63073 -1.68345,2.77049 0.19947,0.704 0.42422,4.448 0.49945,8.32 0.0752,3.872 0.22004,7.42107 0.32181,7.88682 0.23399,1.07094 1.0529,1.8151 2.60756,2.36956 1.44059,0.51378 8.5057,0.59212 14.34119,0.15902 z M 99.30554,162.86429 c 0.88806,-0.47528 0.81277,-2.07915 -0.13915,-2.96403 -0.41696,-0.38759 -0.85353,-1.1414 -0.97014,-1.67513 -0.43178,-1.97616 2.05645,-3.14946 6.51896,-3.07396 0.78689,0.0133 2.73089,-0.20154 4.32,-0.47744 1.58911,-0.2759 3.71381,-0.57642 4.72157,-0.66782 1.00775,-0.0914 2.00136,-0.36991 2.20803,-0.61893 0.31884,-0.38418 0.48331,-0.3517 1.08599,0.21448 1.32014,1.24021 3.53244,-0.0761 2.71016,-1.61253 -0.19033,-0.35563 -0.25827,-0.78865 -0.15097,-0.96226 0.42832,-0.69304 -1.03582,-0.69633 -3.75483,-0.008 -2.82394,0.71443 -2.88331,0.7163 -4.3568,0.1371 -1.23433,-0.48519 -2.27217,-0.57543 -5.97386,-0.51946 -2.464,0.0373 -4.984,-0.046 -5.6,-0.18501 -0.71285,-0.16088 -1.63288,-0.10055 -2.53086,0.16597 -0.77597,0.2303 -1.78397,0.42093 -2.24,0.42362 -0.98833,0.006 -1.64062,0.37268 -1.75528,0.98714 -0.046,0.24638 -0.48911,1.28407 -0.98472,2.30597 -0.67624,1.39433 -0.80978,1.94935 -0.53513,2.224 0.2013,0.2013 0.36599,0.60863 0.36599,0.90519 0,0.29656 0.34952,0.76821 0.77671,1.04812 0.42719,0.2799 0.82319,0.83569 0.88,1.23508 0.0651,0.45761 0.5058,0.91574 1.19169,1.23879 0.59862,0.28195 1.24662,0.72518 1.44,0.98496 0.3744,0.50293 1.45917,1.19997 1.89264,1.21612 0.14357,0.005 0.53957,-0.13933 0.88,-0.32152 z m 18.38312,-3.11364 c 0.17829,-0.12931 0.46848,-0.6635 0.64489,-1.18708 0.26849,-0.79695 0.54696,-0.9906 1.70996,-1.18914 1.43731,-0.24537 2.28099,-0.73097 2.28099,-1.31287 0,-0.18459 0.25009,-0.61197 0.55575,-0.94972 0.52888,-0.5844 0.52592,-0.63591 -0.0612,-1.0652 -0.81395,-0.59518 -1.74777,-0.57334 -1.9856,0.0464 -0.10551,0.27496 -0.49468,0.46299 -0.86995,0.42031 -0.37347,-0.0425 -1.01296,0.0345 -1.4211,0.17103 -0.58595,0.19603 -0.73059,0.46102 -0.68757,1.25969 0.085,1.57752 0.0231,1.81143 -0.47911,1.81143 -0.58164,0 -1.24156,1.171 -1.00594,1.78501 0.18841,0.491 0.79769,0.58806 1.31884,0.2101 z M 86.1645,149.8907 c 0.19704,-1.54573 2.06519,-4.83654 2.89519,-5.09997 0.33572,-0.10656 1.22057,-0.70352 1.96632,-1.32657 1.26512,-1.05698 1.46035,-1.11898 2.91548,-0.92595 1.46506,0.19434 1.62137,0.14296 2.57926,-0.84789 0.56082,-0.58013 1.54875,-1.32549 2.19539,-1.65637 1.06123,-0.54302 1.15788,-0.69883 0.9925,-1.6 -0.10077,-0.54912 -0.39449,-1.16783 -0.6527,-1.3749 -0.58046,-0.4655 -0.28245,-1.57876 0.54052,-2.0192 0.44346,-0.23733 0.7735,-0.15833 1.33833,0.32034 0.74971,0.63536 0.74971,0.63536 0.0297,1.24665 -0.91566,0.77742 -0.90717,0.98871 0.0398,0.98871 0.41787,0 1.37198,0.216 2.12024,0.48 0.74825,0.264 1.48266,0.48 1.63201,0.48 0.41787,0 1.24799,-1.7912 1.24799,-2.69286 0,-0.84611 0.78475,-1.46714 1.85391,-1.46714 0.3388,0 1.42555,0.432 2.415,0.96 2.01272,1.07405 2.92923,1.20335 3.21685,0.45382 0.10683,-0.27839 0.19424,-1.71839 0.19424,-3.2 0,-1.4816 0.108,-2.68857 0.24,-2.68214 0.33798,0.0165 1.94393,2.61197 2.36694,3.82544 0.47867,1.3731 -0.0507,2.46342 -1.48766,3.0638 -1.29406,0.54069 -1.41859,0.9855 -0.39928,1.42623 0.396,0.17123 0.936,0.4352 1.2,0.58662 1.625,0.93202 2.58882,1.32679 3.24937,1.33088 0.94213,0.006 3.26104,0.80327 4.28282,1.47276 0.42616,0.27924 1.38976,0.64436 2.14132,0.81138 0.9878,0.21952 1.83204,0.76171 3.04648,1.95651 1.4506,1.42715 1.68,1.55601 1.68,0.94376 0,-0.38998 0.15262,-0.70907 0.33916,-0.70907 0.18653,0 1.08653,-0.69479 2,-1.54398 2.69489,-2.50528 4.91635,-3.56173 5.50084,-2.61601 0.33419,0.54072 0.79655,0.35767 1.1707,-0.46349 0.19634,-0.43092 0.64655,-0.82692 1.00046,-0.88 0.35391,-0.0531 0.79641,-0.38451 0.98334,-0.73651 0.18692,-0.352 0.59762,-1.03017 0.91268,-1.50705 0.31505,-0.47687 0.57282,-1.31911 0.57282,-1.87164 0,-0.55252 0.2039,-1.45835 0.45311,-2.01295 0.24921,-0.5546 0.52835,-1.44036 0.62031,-1.96836 0.092,-0.528 0.32548,-1.608 0.51894,-2.4 0.82711,-3.38621 1.00584,-7.33928 0.46889,-10.37097 -0.80274,-4.53247 -1.0505,-6.84608 -1.04825,-9.78904 0.002,-2.31934 -0.14873,-3.09468 -1.02166,-5.26369 -0.56304,-1.39903 -1.36573,-3.08546 -1.78373,-3.74762 -0.44391,-0.7032 -0.95599,-2.30712 -1.23121,-3.856316 -0.95856,-5.39589 -1.20627,-6.49926 -1.653,-7.36315 -0.26256,-0.50772 -0.37101,-1.22622 -0.25491,-1.68879 0.42367,-1.68806 -2.0584,-3.77758 -3.63434,-3.05954 -0.63903,0.29116 -0.90498,0.2656 -1.34084,-0.12884 -0.29904,-0.27063 -0.87015,-0.49205 -1.26913,-0.49205 -0.39899,0 -1.10765,-0.19099 -1.57481,-0.42443 -0.46715,-0.23343 -1.30917,-0.65403 -1.87115,-0.93466 -0.68882,-0.34396 -1.06004,-0.39545 -1.13919,-0.158 -0.0661,0.19833 -0.36821,0.25599 -0.69142,0.13197 -0.34131,-0.13098 -0.49976,-0.41377 -0.39085,-0.69758 0.13554,-0.35322 -0.0504,-0.4773 -0.71532,-0.4773 -0.72971,0 -1.01334,-0.23735 -1.50996,-1.26359 -0.33631,-0.69498 -0.94718,-1.41722 -1.35748,-1.60499 -1.02062,-0.46707 -5.27564,-0.7186 -6.20149,-0.36659 -1.19325,0.45368 -8.5614,-0.32372 -9.52371,-1.004832 -0.43516,-0.308 -1.04038,-0.56 -1.34494,-0.56 -0.30456,0 -0.92035,-0.16704 -1.36843,-0.37119 -0.62611,-0.28528 -1.20906,-0.27659 -2.5184,0.0375 -1.48414,0.35603 -1.83438,0.34114 -2.7176,-0.1156 -0.59974,-0.31014 -1.33464,-0.4438 -1.7991,-0.32723 -0.43186,0.10839 -1.5009,0.0436 -2.37564,-0.14402 -3.13394,-0.67211 -6.2506,1.01677 -9.82847,5.325922 -2.01964,2.43244 -2.96001,4.11894 -3.97083,7.12151 -1.7837,5.2983 -2.50247,9.736866 -2.78424,17.193226 -0.19848,5.25244 0.002,7.05819 0.71776,6.46418 0.25361,-0.21047 0.4611,-0.64969 0.4611,-0.97605 0,-0.75366 3.02161,-3.16827 3.96473,-3.16827 0.389,0 0.85359,-0.14632 1.03244,-0.32517 0.5726,-0.5726 7.14629,-1.08893 8.63449,-0.6782 1.604,0.4427 3.20595,1.50118 4.09891,2.70834 0.6341,0.85722 0.63968,0.92678 0.10571,1.31801 -0.59176,0.43357 -2.38232,0.24524 -4.17712,-0.43937 -0.49545,-0.18898 -2.15145,-0.34115 -3.68,-0.33815 -2.50267,0.005 -2.93834,0.0999 -4.37916,0.95455 -0.88,0.522 -1.888,0.95208 -2.24,0.95574 -0.352,0.004 -1.13165,0.30639 -1.73256,0.67272 -0.61447,0.3746 -1.41963,0.60354 -1.84,0.52318 -0.65882,-0.12594 -0.74744,-0.02 -0.74744,0.89356 0,0.57004 -0.19757,1.2004 -0.43903,1.4008 -0.54579,0.45297 -0.88799,-0.31372 -1.80854,-4.05194 -0.77358,-3.1414 -1.23232,-4.23407 -1.77763,-4.23407 -1.45468,0 -2.21365,1.20589 -2.51774,4.00035 -0.1149,1.05581 -0.35343,2.86009 -0.53006,4.0095 -0.2325,1.51289 -0.21561,2.52884 0.0612,3.68 0.2244,0.93336 0.35732,3.5179 0.32181,6.25735 -0.0526,4.05949 0.0275,4.90228 0.61501,6.47263 0.84307,2.25331 4.02163,5.66018 5.28086,5.66018 0.88397,0 1.43042,0.94978 1.43882,2.50083 0.005,0.97338 0.59116,2.74407 1.60779,4.85916 0.73659,1.53249 2.87461,3.73464 4.06756,4.18959 0.61018,0.23269 0.72,0.51169 0.72,1.82916 0,0.85502 0.099,1.65359 0.22,1.77459 0.46693,0.46693 0.90662,-0.055 1.06,-1.25818 z m 23.36,-20.77515 c 0,-0.264 0.216,-0.48 0.48,-0.48 0.264,0 0.48,0.216 0.48,0.48 0,0.264 -0.216,0.48 -0.48,0.48 -0.264,0 -0.48,-0.216 -0.48,-0.48 z m -33.71572,-3.52 c -0.1013,-0.264 -0.0447,-0.48 0.12576,-0.48 0.17048,0 0.30996,0.216 0.30996,0.48 0,0.264 -0.0566,0.48 -0.12576,0.48 -0.0692,0 -0.20865,-0.216 -0.30996,-0.48 z m 38.00102,-4.50532 c -1.89585,-0.93533 -2.94537,-2.36164 -3.2779,-4.45468 -0.38617,-2.43065 -0.2168,-2.63666 3.70471,-4.50623 3.25834,-1.5534 3.85334,-1.62787 7.60789,-0.95218 3.2371,0.58257 5.41375,1.32283 7.03098,2.39116 1.36065,0.89884 4.32902,4.36252 4.32902,5.05137 0,0.58112 -1.11509,0.52016 -1.62029,-0.0886 -0.29934,-0.36068 -0.71853,-0.4482 -1.47074,-0.30708 -0.70227,0.13174 -1.30757,0.0299 -1.82053,-0.30615 -0.63693,-0.41733 -1.00806,-0.44245 -2.16845,-0.14677 -2.61172,0.66551 -3.18263,0.70127 -4.69233,0.29393 -1.92671,-0.51984 -2.62766,-1.13406 -2.62766,-2.30251 0,-0.7148 -0.1305,-0.90873 -0.55632,-0.82673 -0.66348,0.12777 -0.94657,1.20426 -0.40476,1.53912 0.24521,0.15155 0.0847,0.31061 -0.44851,0.44444 -1.0601,0.26607 -1.04407,0.48756 0.16498,2.27903 0.95501,1.41505 0.97123,1.49318 0.4,1.92586 -0.78704,0.59615 -2.90807,0.57878 -4.15009,-0.034 z M 93.58227,119.5942 c -0.40196,-1.36134 -0.40196,-1.36134 -1.83733,-1.24718 -2.10141,0.16713 -2.83986,-0.12329 -3.51874,-1.3839 -0.71572,-1.32902 -1.45522,-1.43272 -2.32566,-0.32614 -1.42532,1.81201 -3.82223,1.17276 -3.2382,-0.86361 0.70802,-2.46873 4.6656,-4.86084 8.73713,-5.28106 2.14404,-0.22128 4.06032,0.59543 6.19403,2.63988 1.29929,1.24494 1.40333,1.46238 1.31114,2.74031 -0.0784,1.08672 -0.26521,1.46995 -0.86044,1.76516 -0.41817,0.2074 -0.96476,0.79924 -1.21465,1.3152 -0.3465,0.71545 -2.12439,2.00269 -2.76604,2.00269 -0.0436,0 -0.26017,-0.61261 -0.48124,-1.36135 z m -7.83912,-5.24586 c 0.56026,-0.41403 1.21861,-0.75279 1.463,-0.75279 0.24439,0 1.11799,-0.22954 1.94135,-0.51008 2.93178,-0.99896 1.14618,-1.52142 -2.00324,-0.58614 -1.77538,0.52723 -3.21976,1.66692 -3.21976,2.54056 0,0.56693 0.23836,0.4763 1.81865,-0.69155 z m 47.09552,-2.81804 c -1.57346,-0.81075 -2.59657,-1.09332 -4.51732,-1.24763 -1.36573,-0.10972 -3.12108,-0.36012 -3.90077,-0.55645 -1.07065,-0.26959 -2.02935,-0.25857 -3.91686,0.0451 -1.37457,0.22112 -3.97522,0.4613 -5.77922,0.53374 -2.87242,0.11534 -3.28,0.0669 -3.28,-0.38992 0,-1.06337 0.74183,-1.83991 2.5071,-2.62446 2.94918,-1.31071 4.76289,-1.69382 9.48342,-2.00316 4.47053,-0.29297 4.47053,-0.29297 8.09339,1.46192 2.51314,1.21735 3.70657,1.97506 3.89614,2.47368 0.1503,0.39533 0.50428,0.91049 0.78661,1.1448 0.80834,0.67087 0.62117,1.52747 -0.41249,1.88781 -0.78703,0.27436 -1.2308,0.16561 -2.96,-0.72539 z m -3.3005,-27.032646 c -0.21859,-0.35367 0.28621,-0.73556 0.5817,-0.44008 0.30425,0.30426 0.24755,0.73797 -0.0965,0.73797 -0.16562,0 -0.38397,-0.13405 -0.48522,-0.29789 z M 102.6285,148.82321 c -0.48913,-0.47036 -1.83233,-0.54336 -1.98092,-0.10767 -0.0933,0.27356 0.2463,0.4 1.07426,0.4 0.73924,0 1.09228,-0.11383 0.90666,-0.29233 z m -5.69066,-0.561 c -0.11734,-0.11733 -0.30934,-0.11733 -0.42667,0 -0.11733,0.11733 -0.0213,0.21333 0.21333,0.21333 0.23467,0 0.33067,-0.096 0.21334,-0.21333 z m 9.28769,-0.62227 c 0.92172,-0.99456 0.78488,-1.25912 -0.44103,-0.85266 -0.55597,0.18433 -0.93909,0.56404 -1.00225,0.99333 -0.13821,0.93923 0.50011,0.87702 1.44328,-0.14067 z m 41.37407,-5.50328 c -0.004,-0.8804 -0.0839,-1.0589 -0.3151,-0.70111 -0.41273,0.63865 -0.41273,2.33508 0,2.07999 0.176,-0.10877 0.3178,-0.72927 0.3151,-1.37888 z m 0.005,-1.50111 c 0,-0.088 -0.072,-0.16 -0.16,-0.16 -0.088,0 -0.16,0.072 -0.16,0.16 0,0.088 0.072,0.16 0.16,0.16 0.088,0 0.16,-0.072 0.16,-0.16 z m 4.3665,-2.73768 c 1.60599,-0.6106 5.63741,-3.94748 7.00406,-5.7974 1.48109,-2.00482 1.8644,-3.2021 2.38994,-7.46492 0.19528,-1.584 0.61613,-3.888 0.93522,-5.12 0.42395,-1.63683 0.5141,-2.67084 0.33479,-3.84 -0.28575,-1.86311 -1.26819,-5.02239 -1.99022,-6.4 -0.70492,-1.34498 -2.45382,-2.95662 -2.73544,-2.52076 -0.12367,0.1914 -0.74426,0.51725 -1.3791,0.7241 -1.18161,0.385 -2.63179,1.915 -3.61165,3.81041 -0.29962,0.57956 -0.8756,1.17953 -1.27997,1.33327 -1.02953,0.39143 -2.90916,4.9026 -3.39512,8.14838 -0.24134,1.61192 -0.31107,4.29701 -0.19144,7.37183 0.16022,4.11773 0.11231,4.94474 -0.32233,5.56529 -0.28079,0.40088 -0.45674,0.78264 -0.39102,0.84836 0.0657,0.0657 1.19135,-0.23159 2.5014,-0.66069 2.66799,-0.8739 3.53367,-0.96781 3.50457,-0.38019 -0.0202,0.40851 -2.64878,2.48 -3.14693,2.48 -0.41086,0 -1.00023,0.80537 -1.14697,1.56735 -0.11099,0.57633 0.0252,0.67265 0.95125,0.67265 0.59444,0 1.48047,-0.15196 1.96896,-0.33768 z m 3.45261,-6.83162 c -0.29595,-1.17916 -0.002,-1.70558 1.24127,-2.22517 0.77692,-0.32462 1.29439,-0.88056 1.80887,-1.94334 0.66275,-1.36906 0.70444,-1.77677 0.51891,-5.07542 -0.11095,-1.97272 -0.23868,-5.09877 -0.28383,-6.94677 -0.0609,-2.49336 -0.23506,-3.67246 -0.67511,-4.57144 -0.67381,-1.37653 -0.51563,-1.76007 0.52943,-1.28376 0.85715,0.39068 3.12135,5.63116 3.12135,7.22436 0,0.55892 -0.21047,2.0995 -0.46772,3.42352 -0.25724,1.32403 -0.67768,3.55932 -0.93431,4.96732 -0.58808,3.22659 -1.55693,5.51351 -2.50844,5.92106 -0.40124,0.17187 -1.0474,0.54343 -1.43591,0.82569 -0.67409,0.48976 -0.71589,0.47532 -0.91451,-0.31605 z m -5.84568,-0.72386 c -0.19439,-0.34735 -0.15211,-0.98857 0.12132,-1.84 0.23082,-0.71876 0.39393,-1.66684 0.36246,-2.10684 -0.0467,-0.65271 0.0754,-0.78597 0.66279,-0.72378 0.94658,0.10022 0.96564,-0.94935 0.0447,-2.46005 -0.57117,-0.93693 -0.64006,-1.39421 -0.45563,-3.02433 0.32127,-2.83966 0.58002,-3.17914 2.23416,-2.93109 1.21883,0.18278 1.42307,0.11835 1.89157,-0.59667 0.28887,-0.44086 0.52521,-1.09463 0.52521,-1.45283 0,-0.35818 0.144,-0.65125 0.32,-0.65125 0.176,0 0.32,0.595 0.32,1.32223 0,0.7431 0.26877,1.75924 0.61365,2.32 0.77913,1.26681 1.42253,4.78278 1.1673,6.37888 -0.28447,1.77897 -0.97043,2.62672 -2.74211,3.38887 -0.89599,0.38545 -1.93656,1.15548 -2.42268,1.79283 -0.9314,1.22113 -2.13708,1.48758 -2.64273,0.58403 z m 2.50657,-15.62684 c 0,-0.88106 1.12351,-2.21449 1.61167,-1.91279 0.53965,0.33352 0.33291,1.29814 -0.43229,2.01701 -0.95441,0.89661 -1.17938,0.87673 -1.17938,-0.10422 z"
       id="path945"
       inkscape:connector-curvature="0"
       sodipodi:nodetypes="ssssscsccsccccccsssscccccccssscscccscsssccccccccccsscccccccccccccccccsscccccsccccccssccccccccccsccccccsccccccccccccccscsssccscccccccscssccccccsscccccccccccscccccsccccscccccccccssscccccccccscsscccccscccssccssssscsssccscscscccccscccccccccscccccccsccsccsccsccssccssccccccsccccsccsscccccccccssssscccccccccccccsccscsccccccscsccccccccsccccssscccsccsccs" />
    <path
       style="fill:#9b6d62;stroke-width:0.31999999"
       d="m 41.248039,266.15555 c 0.07867,-1.804 0.281078,-5.67765 0.449798,-8.60812 0.16872,-2.93047 0.306764,-9.00302 0.306764,-13.49455 0,-8.1571 0.35271,-15.56392 0.985599,-20.69733 0.18444,-1.496 0.460309,-4.232 0.613043,-6.08 0.413644,-5.00489 1.113679,-6.55494 5.13874,-11.37843 3.908296,-4.68356 6.401741,-6.60085 12.384583,-9.5229 1.890918,-0.92353 4.446035,-2.27432 5.678035,-3.00174 1.404586,-0.82933 3.426547,-1.64107 5.421501,-2.17654 1.749827,-0.46966 6.069827,-1.90339 9.6,-3.18605 3.530176,-1.28267 7.210499,-2.58636 8.178499,-2.8971 2.04593,-0.65676 3.999766,-1.59511 5.083155,-2.44122 1.226496,-0.95788 1.892618,-0.77228 2.16768,0.60398 0.290269,1.45236 0.296269,9.18038 0.0099,12.72 -0.316717,3.91438 -0.0135,4.49962 2.812174,5.42793 2.63816,0.86671 13.85962,0.69606 19.68712,-0.29939 3.50996,-0.59957 8.95289,-2.05002 12.00775,-3.19987 2.85219,-1.07356 7.22452,-4.03395 9.70155,-6.56867 6.81685,-6.97562 8.02043,-8.27334 8.64184,-9.31777 0.81405,-1.36819 0.85171,-2.08857 0.21323,-4.07928 -0.70449,-2.19649 -2.08668,-9.76957 -1.82797,-10.01543 0.12298,-0.11687 0.94359,0.61737 1.82359,1.63164 0.88,1.01427 2.5949,2.58393 3.81089,3.48813 1.98862,1.47873 2.33115,1.62477 3.40718,1.45271 0.65796,-0.10521 1.67906,-0.0442 2.26911,0.13561 0.59005,0.1798 1.46095,0.41261 1.93533,0.51736 0.47438,0.10475 1.52156,0.76085 2.32707,1.45801 1.34179,1.16131 2.29581,1.58103 4.72756,2.07985 0.48242,0.099 1.33718,0.68549 1.89947,1.3034 0.76102,0.83631 1.60014,1.29766 3.28287,1.80494 2.55327,0.7697 7.67724,2.77343 12.66052,4.95091 3.13944,1.3718 8.17414,4.49277 13.18801,8.17515 1.18141,0.86767 2.84066,1.96394 3.68723,2.43617 0.84657,0.47223 2.79595,1.7226 4.33197,2.7786 2.79274,1.92 2.79274,1.92 2.79277,35.6 1e-5,33.68 1e-5,33.68 -84.76979,33.68 -84.769792,0 -84.769792,0 -84.626759,-3.28 z M 105.5246,181.1527 c -4.40958,-1.02018 -6.254757,-1.61756 -7.304325,-2.36477 -0.558621,-0.39769 -1.694759,-1.07497 -2.524749,-1.50507 -0.991568,-0.51383 -1.64601,-1.11555 -1.908387,-1.75465 -0.21962,-0.53496 -0.717245,-1.44411 -1.105828,-2.02033 -0.967468,-1.43463 -3.843587,-4.55233 -4.199584,-4.55233 -1.010796,0 -5.132899,-7.01335 -5.702057,-9.70148 -0.2304,-1.08819 -0.515831,-2.37452 -0.634295,-2.85852 -0.167881,-0.68591 -0.101292,-0.88 0.30192,-0.88 0.760628,0 0.65193,-0.2369 -0.741846,-1.61681 -1.006832,-0.99682 -1.297114,-1.55288 -1.448592,-2.77491 -0.104192,-0.84055 -0.329571,-1.9705 -0.500848,-2.511 -0.421914,-1.33144 -0.403568,-1.41728 0.302874,-1.41728 0.455664,0 0.756217,0.42733 1.163948,1.65489 0.549664,1.65489 0.549664,1.65489 1.149805,0.83103 0.84864,-1.16499 1.871965,-0.86306 1.871965,0.55233 0,1.32772 0.795978,3.24079 1.877469,4.51237 0.463392,0.54484 0.99544,1.25408 1.182326,1.57609 0.520435,0.89672 1.100205,0.27691 1.100205,-1.17619 0,-0.80566 -0.256858,-1.65244 -0.682602,-2.25035 -1.052579,-1.4782 -1.137356,-3.38313 -0.210966,-4.74017 0.420518,-0.616 0.858586,-1.36549 0.973482,-1.66554 0.189936,-0.496 0.956505,-0.99773 3.88208,-2.54087 0.60406,-0.31862 1.396662,-0.46191 2.007945,-0.36301 0.871344,0.14098 1.200704,-0.0306 2.4,-1.25026 0.764535,-0.77752 2.038061,-1.68519 2.830061,-2.01703 0.791999,-0.33185 1.680389,-0.80416 1.974199,-1.04958 0.39643,-0.33112 0.99683,-0.3884 2.32797,-0.22209 1.79377,0.22412 1.79377,0.22412 1.72313,-0.7029 -0.0389,-0.50987 0.0611,-1.13891 0.22216,-1.39787 0.16104,-0.25897 0.25437,-0.7686 0.20741,-1.13253 -0.058,-0.44911 0.18136,-0.78322 0.74493,-1.04 1.1811,-0.53814 1.45743,-0.49181 3.46911,0.58169 2.01273,1.07405 2.92923,1.20335 3.21685,0.45382 0.10684,-0.27839 0.19424,-1.71839 0.19424,-3.2 0,-1.4816 0.108,-2.68857 0.24,-2.68214 0.33798,0.0165 1.94393,2.61197 2.36695,3.82544 0.47866,1.3731 -0.0508,2.46342 -1.48767,3.0638 -1.29405,0.54069 -1.41858,0.9855 -0.39928,1.42623 0.396,0.17123 0.936,0.4352 1.2,0.58662 1.625,0.93202 2.58882,1.32679 3.24937,1.33088 1.16262,0.007 3.42737,0.88978 4.62254,1.80138 0.62287,0.47508 1.29511,0.743 1.58509,0.63172 0.77194,-0.29622 2.09124,0.54974 3.49237,2.23937 1.22674,1.47934 1.27563,1.50441 1.45599,0.7468 0.12723,-0.53443 0.40815,-0.78393 0.88268,-0.78393 0.38282,0 0.94293,-0.36 1.24469,-0.8 0.69371,-1.01152 1.29924,-1.3985 2.50364,-1.6 0.63219,-0.10576 0.99524,-0.37693 1.07106,-0.79999 0.20163,-1.1251 0.61031,-1.2543 1.99396,-0.63036 1.24389,0.56092 1.34093,0.56369 1.63028,0.0467 0.16922,-0.30237 0.44684,-0.46375 0.61694,-0.35862 0.41819,0.25846 1.54698,-1.14105 1.56285,-1.93768 0.007,-0.352 0.29886,-1.072 0.64854,-1.6 0.34968,-0.528 0.63762,-1.392 0.63986,-1.92 0.002,-0.528 0.2192,-1.37247 0.48211,-1.87658 0.26292,-0.50412 0.48173,-1.36812 0.48624,-1.92 0.005,-0.55189 0.26264,-2.15542 0.57359,-3.56342 0.71324,-3.22959 0.67901,-7.74283 -0.0861,-11.36001 -0.4179,-1.9756 -0.52964,-3.50819 -0.40827,-5.6 0.2509,-4.3242 -0.49375,-7.80409 -2.29395,-10.72 -1.01161,-1.638562 -1.96398,-4.578866 -2.59123,-7.999999 -0.14521,-0.792 -0.50823,-2.088 -0.8067,-2.88 -0.29848,-0.792 -0.56357,-2.036893 -0.58909,-2.766425 -0.0515,-1.47304 -0.71505,-2.40897 -2.12051,-2.99113 -0.6913,-0.286345 -1.07377,-0.287235 -1.60349,-0.0037 -0.5596,0.299491 -0.80489,0.27344 -1.25423,-0.133203 -0.30721,-0.278026 -0.88502,-0.505504 -1.284,-0.505504 -0.39899,0 -1.10765,-0.190992 -1.57481,-0.424429 -0.46715,-0.233433 -1.30917,-0.654032 -1.87115,-0.934659 -0.68882,-0.343968 -1.06004,-0.395456 -1.13919,-0.158 -0.0661,0.19833 -0.36821,0.25599 -0.69142,0.131962 -0.34131,-0.130973 -0.49976,-0.413764 -0.39085,-0.697572 0.13554,-0.353222 -0.0504,-0.477296 -0.71532,-0.477296 -0.72971,0 -1.01334,-0.237353 -1.50996,-1.263593 -0.33631,-0.694976 -0.94718,-1.417219 -1.35748,-1.604986 -1.05529,-0.482934 -5.28919,-0.713449 -6.2681,-0.341267 -1.3649,0.518935 -8.27458,-0.421862 -9.49835,-1.293261 -0.54643,-0.389091 -1.23067,-0.733248 -1.52053,-0.764793 -0.61408,-0.06683 -1.55944,-0.4052 -2.40096,-0.859367 -0.45926,-0.247859 -0.7342,-0.169996 -1.21247,0.34336 -0.73538,0.789344 -1.0549,0.811466 -2.804562,0.194148 -0.736483,-0.259844 -1.756889,-0.384669 -2.283539,-0.279338 -0.523658,0.104733 -1.574646,0.01613 -2.335536,-0.196915 -2.821424,-0.789952 -5.347328,0.664429 -9.417766,5.422614 -5.167997,6.041187 -7.102679,13.552848 -7.10945,27.603393 -0.0016,3.124 -0.129267,5.68 -0.283914,5.68 -0.346419,0 -0.834595,-1.24893 -1.31334,-3.36 -0.199565,-0.88 -0.554903,-1.95277 -0.789642,-2.38394 -0.359552,-0.66042 -0.354339,-0.89453 0.03309,-1.48583 0.371546,-0.56705 0.482352,-2.84555 0.576816,-11.861063 0.106586,-10.172461 0.174164,-11.328512 0.764256,-13.074173 1.190756,-3.522592 2.421732,-5.783971 4.97544,-9.140188 0.613168,-0.805859 1.21521,-1.885859 1.337866,-2.4 0.122659,-0.514141 0.599594,-1.269261 1.059853,-1.678048 0.805648,-0.715549 0.810003,-0.737533 0.116835,-0.589958 -0.396,0.08431 -0.72,0.05792 -0.72,-0.05864 0,-0.373703 1.920669,-1.076371 2.419216,-0.885063 0.649066,0.249069 1.141222,-1.103536 0.888886,-2.442956 -0.264275,-1.402819 -0.984681,-2.160138 -2.054841,-2.160138 -1.094624,0 -1.893261,-0.752064 -1.893261,-1.782857 0,-1.01704 0.678512,-1.00793 3.050224,0.04095 1.590256,0.703287 1.977558,0.7652 2.759818,0.441178 1.190162,-0.49308 1.147739,-0.820616 -0.210088,-1.621752 -0.616,-0.363449 -1.12,-0.862592 -1.12,-1.109209 0,-0.595824 0.309504,-0.567315 2.08,0.191609 1.886842,0.808797 1.900909,0.807594 2.360682,-0.201494 0.314931,-0.691203 0.295529,-0.938595 -0.108637,-1.385197 -0.918746,-1.0152 -0.237546,-1.870809 0.723955,-0.909309 0.298666,0.298666 0.384,0.231754 0.384,-0.301113 0,-0.963875 0.537322,-1.18377 1.442813,-0.590471 0.42607,0.279172 0.959737,0.503034 1.185929,0.497472 0.543908,-0.01338 1.762752,-1.119145 3.078148,-2.792591 1.210492,-1.539988 1.97311,-1.755386 1.97311,-0.557296 0,1.025939 0.562729,1.01679 1.587949,-0.02582 0.44663,-0.454199 1.31605,-1.143149 1.93205,-1.530996 0.62082,-0.390883 1.16557,-1.021177 1.22226,-1.414182 0.11907,-0.825581 0.54682,-0.905645 1.22346,-0.229005 0.61773,0.617731 1.39428,0.617731 1.39428,0 0,-0.26407 0.28331,-0.48 0.62978,-0.48 0.35573,0 0.8226,-0.368003 1.07288,-0.845685 0.28323,-0.540565 0.52464,-0.713747 0.66911,-0.48 0.3651,0.590756 2.03959,0.44573 2.24357,-0.194315 0.23548,-0.738879 2.42466,-0.955398 2.42466,-0.239805 0,0.263894 0.19368,0.479808 0.4304,0.479808 0.23673,0 0.6837,0.279879 0.99327,0.621955 0.30957,0.342074 0.92621,0.666074 1.3703,0.72 0.62322,0.07567 0.9341,0.423248 1.36248,1.523293 0.70936,1.821545 1.17269,1.958249 1.7724,0.522937 0.74491,-1.782828 1.1757,-1.437843 0.92887,0.743859 -0.21187,1.872676 -0.204,1.897242 0.76822,2.4 1.0428,0.539251 1.97485,0.665843 1.97286,0.267955 -6.4e-4,-0.131999 -0.28654,-0.707999 -0.63529,-1.279999 -0.46403,-0.76105 -0.51992,-1.04 -0.2084,-1.04 0.49016,0 1.48489,1.00888 1.48489,1.506016 0,0.184588 0.19927,0.500998 0.44283,0.703129 0.35964,0.298483 0.48519,0.141658 0.6684,-0.834925 0.51167,-2.727465 1.49064,-3.187904 1.22088,-0.57422 -0.20989,2.033609 0.1001,2.22455 1.29879,0.8 0.44428,-0.528 0.94111,-0.96 1.10407,-0.96 0.42517,0 0.0688,1.6596 -0.49556,2.308079 -0.55521,0.637911 -0.28288,1.678471 0.37338,1.42664 0.28153,-0.108032 0.58994,0.172464 0.8319,0.756605 0.39789,0.960586 2.34643,2.689226 3.95895,3.51216 0.508,0.259254 1.06208,0.868528 1.2313,1.353942 0.16922,0.485415 0.40158,0.890436 0.51637,0.900045 0.11478,0.0096 0.82109,0.05505 1.56958,0.100979 1.68008,0.103098 2.82795,1.116695 4.09044,3.611955 0.49327,0.974935 1.2058,1.913373 1.5834,2.085418 0.3776,0.172045 0.89326,0.63737 1.14591,1.034054 0.25265,0.396685 1.47645,1.646637 2.71956,2.777667 3.09381,2.814883 5.20825,5.251661 5.4647,6.297776 0.11793,0.481072 0.73013,1.954678 1.36044,3.274678 1.14603,2.4 1.14603,2.4 1.1125,8.32 -0.0184,3.256 -0.107,8.332 -0.19681,11.279999 -0.16327,5.36 -0.16327,5.36 1.05168,5.36 2.45184,0 3.05646,0.93027 1.00423,1.54513 -1.26088,0.37777 -2.67502,1.84042 -3.70425,3.83133 -0.30038,0.58106 -0.79062,1.14217 -1.08942,1.24691 -0.90834,0.31843 -2.30327,1.77944 -2.30327,2.41239 0,0.32781 -0.19438,0.98487 -0.43196,1.46013 -0.72738,1.45508 -1.24551,5.48941 -1.15897,9.02411 0.14199,5.79912 0.0826,7.39632 -0.28875,7.76769 -0.19818,0.19817 -0.36032,0.63492 -0.36032,0.97055 0,0.45226 0.14497,0.55287 0.56,0.38864 1.37598,-0.54449 4.45119,-1.439 4.96,-1.44275 0.308,-0.002 0.55109,0.17588 0.54019,0.39588 -0.0202,0.40851 -2.64878,2.48 -3.14693,2.48 -0.35599,0 -1.02617,0.8099 -1.11221,1.34409 -0.0369,0.22875 -0.50371,0.84791 -1.03747,1.37591 -0.89507,0.8854 -1.00134,1.23352 -1.36755,4.47999 -0.21838,1.936 -0.53183,4.12377 -0.69655,4.86171 -0.16471,0.73793 -0.29948,1.6956 -0.29948,2.12813 0,0.43255 -0.576,2.03912 -1.28,3.57016 -0.704,1.53105 -1.28089,2.94939 -1.28197,3.15187 -9.6e-4,0.20247 -0.20132,0.75021 -0.44497,1.2172 -0.24366,0.46699 -0.60819,1.34957 -0.81008,1.96131 -0.20189,0.61173 -0.64965,1.36797 -0.99503,1.68053 -0.34537,0.31256 -0.62795,0.72916 -0.62795,0.92578 0,0.19662 -0.40714,0.8583 -0.90476,1.47041 -0.49762,0.61209 -1.18162,1.6169 -1.52,2.2329 -0.33838,0.616 -0.93924,1.52705 -1.33524,2.02456 -0.396,0.4975 -0.72,1.11402 -0.72,1.37004 0,0.25602 -0.216,0.54838 -0.48,0.64968 -0.264,0.10131 -0.48,0.4002 -0.48,0.6642 0,0.29519 0.1848,0.40908 0.48,0.2958 0.26676,-0.10236 0.47527,-0.0109 0.46935,0.20577 -0.0144,0.5263 -1.12616,1.82995 -1.56064,1.82995 -0.19179,0 -0.34871,0.3636 -0.34871,0.808 0,0.64607 -0.1971,0.84742 -0.98347,1.0047 -0.84175,0.16835 -0.95616,0.30554 -0.79391,0.952 0.13438,0.53542 0.0536,0.7553 -0.27764,0.7553 -0.25696,0 -0.55621,-0.144 -0.66498,-0.32 -0.31287,-0.50622 -0.62298,-0.37756 -0.96412,0.4 -0.43338,0.98783 -1.5152,0.93957 -1.75548,-0.0783 -0.10365,-0.43907 -0.39815,-0.83801 -0.65443,-0.88652 -0.56206,-0.1064 -0.76082,1.95494 -0.27588,2.86107 0.27501,0.51386 0.17695,0.58377 -0.81883,0.58377 -0.79223,0 -1.13126,-0.14385 -1.13126,-0.48 0,-0.85195 -1.57417,-0.58959 -1.92,0.32 -0.30557,0.80372 -1.28,1.12666 -1.28,0.42422 0,-0.20702 -0.32334,-0.0847 -0.72,0.27232 -0.99821,0.89852 -1.77572,1.12038 -2.52363,0.72011 -0.44054,-0.23577 -0.76065,-0.23867 -1.0369,-0.009 -0.2198,0.18241 -1.39859,0.40283 -2.61955,0.48983 -6.94479,0.4948 -7.34682,0.49074 -9.89992,-0.0999 z m 27.60667,-7.33715 c 0.0708,-0.21226 -0.1676,-0.38 -0.54,-0.38 -0.66475,0 -0.86398,0.33603 -0.44667,0.75334 0.29647,0.29647 0.83079,0.0943 0.98667,-0.37334 z m -30.32667,-7.84422 c 0,-0.40932 -0.36,-1.08242 -0.8,-1.49578 -0.8,-0.75156 -0.8,-0.75156 -0.8,-0.0558 0,0.4754 -0.19673,0.69578 -0.62111,0.69578 -0.34161,0 -0.710115,0.144 -0.818889,0.32 -0.114698,0.18559 0.19695,0.32 0.741929,0.32 0.51684,0 1.11897,0.216 1.33807,0.48 0.57694,0.69517 0.96,0.58974 0.96,-0.26422 z m -3.560434,-2.15214 c 1.337624,-0.69721 1.881284,-1.81568 1.357914,-2.79361 -0.16391,-0.30626 -0.22695,-0.92858 -0.1401,-1.38292 0.10157,-0.53129 -0.0435,-1.02756 -0.40662,-1.39064 -0.714986,-0.71498 -0.292369,-1.4991 1.02239,-1.89691 0.50977,-0.15424 1.43625,-0.48632 2.05885,-0.73794 0.84268,-0.34056 1.35384,-0.37314 2,-0.12747 0.50952,0.19372 1.16536,0.21883 1.588,0.0608 0.396,-0.14807 1.57463,-0.3742 2.61918,-0.5025 1.04455,-0.1283 2.25193,-0.36739 2.68308,-0.53132 0.43115,-0.16392 2.22236,-0.35528 3.98049,-0.42524 1.75812,-0.07 3.34039,-0.27101 3.51616,-0.44678 0.4756,-0.4756 0.58575,-3.17127 0.1366,-3.34294 -0.20653,-0.079 -1.74351,0.20836 -3.41551,0.63845 -3.02402,0.77787 -3.04925,0.77891 -4.8,0.19868 -1.42451,-0.4721 -2.56483,-0.56478 -5.98227,-0.48618 -2.32225,0.0534 -4.78706,-0.055 -5.477358,-0.24085 -0.978755,-0.26355 -1.555142,-0.23209 -2.617958,0.14289 -0.749584,0.26447 -1.884775,0.48306 -2.522647,0.48575 -1.436281,0.006 -1.804364,0.2426 -2.070403,1.33044 -0.115046,0.47044 -0.587245,1.30465 -1.049331,1.8538 -0.714083,0.84865 -0.815696,1.21547 -0.677155,2.44459 0.09598,0.85157 0.441366,1.74243 0.840061,2.16682 0.372384,0.39639 0.677062,0.91608 0.677062,1.15488 0,0.65513 0.980765,1.60457 1.657517,1.60457 0.343769,0 0.727728,0.34036 0.902483,0.8 0.192323,0.50585 0.553411,0.8 0.982038,0.8 0.408759,0 0.744324,0.25409 0.845242,0.64 0.211805,0.80995 0.71385,0.80636 2.292285,-0.0164 z m 17.334014,-3.29806 c 0.46888,0.46888 2.54642,-0.22248 2.54642,-0.84739 0,-0.26686 0.45273,-0.84363 1.00608,-1.2817 1.15957,-0.91801 1.57364,-1.34544 2.74713,-2.83579 0.82054,-1.04211 0.82906,-1.0945 0.24715,-1.52 -0.80698,-0.59008 -2.055,-0.55912 -2.29137,0.0568 -0.10551,0.27496 -0.49468,0.46299 -0.86995,0.42031 -1.45871,-0.16588 -2.11904,0.32892 -2.11904,1.58784 0,0.90966 -0.16257,1.25544 -0.70451,1.49843 -0.40101,0.1798 -0.81853,0.76392 -0.96916,1.35588 -0.14815,0.58223 -0.47188,1.04 -0.73548,1.04 -0.25897,0 -0.47085,0.192 -0.47085,0.42667 0,0.7418 0.44708,0.9101 0.87242,0.32842 0.28254,-0.38641 0.51292,-0.45775 0.74116,-0.22951 z m 13.88356,-11.26843 c 0.59705,-0.59705 0.63666,-0.97668 0.13432,-1.28715 -0.39676,-0.2452 -1.23146,0.68419 -1.23146,1.37117 0,0.56525 0.48501,0.52811 1.09714,-0.084 z m -27.83314,-0.42948 c -0.48913,-0.47036 -1.83233,-0.54336 -1.98092,-0.10767 -0.0933,0.27356 0.2463,0.4 1.07426,0.4 0.73923,0 1.09228,-0.11383 0.90666,-0.29233 z m -5.150153,-1.15255 c -0.243068,-0.63343 -1.363104,-0.60757 -1.610518,0.0372 -0.108122,0.28176 -0.0034,0.63171 0.2328,0.77767 0.594,0.36712 1.602413,-0.22931 1.377718,-0.81485 z m 8.747183,-0.0307 c 0.92172,-0.99455 0.78488,-1.25911 -0.44103,-0.85265 -0.55597,0.18433 -0.93909,0.56404 -1.00226,0.99333 -0.1382,0.93923 0.50012,0.87702 1.44329,-0.14068 z M 102.8046,51.675553 c 0.43241,-0.521028 0.32898,-0.586157 -0.45383,-0.285764 -0.27839,0.106829 -0.50617,0.322829 -0.50617,0.48 0,0.442634 0.51851,0.337725 0.96,-0.194236 z M 78.717411,144.0167 c -0.09509,-0.36363 -0.05087,-0.66115 0.09826,-0.66115 0.458566,0 0.71913,0.6778 0.387898,1.00904 -0.204352,0.20435 -0.373373,0.0834 -0.48616,-0.34789 z m 20.265385,-7.04554 c -0.37391,-0.23462 -0.390441,-0.4464 -0.08686,-1.11269 0.430573,-0.945 1.370814,-1.07506 2.148664,-0.2972 0.43428,0.43428 0.45217,0.59527 0.10286,0.92565 -0.62168,0.588 -1.637261,0.81519 -2.164664,0.48424 z m 56.440914,-5.9049 c -0.29595,-1.17916 -0.002,-1.70558 1.24127,-2.22517 0.77692,-0.32462 1.29439,-0.88056 1.80887,-1.94334 0.66275,-1.36907 0.70444,-1.77678 0.51891,-5.07543 -0.11095,-1.97272 -0.23868,-5.09877 -0.28383,-6.94677 -0.0609,-2.49336 -0.23506,-3.67246 -0.67511,-4.57144 -0.67381,-1.37652 -0.51563,-1.76006 0.52943,-1.28375 0.85715,0.39067 3.12135,5.63115 3.12135,7.22435 0,0.55892 -0.21047,2.0995 -0.46772,3.42352 -0.25724,1.32403 -0.67768,3.55932 -0.93431,4.96732 -0.58808,3.2266 -1.55693,5.51352 -2.50844,5.92107 -0.40124,0.17187 -1.0474,0.54343 -1.43591,0.82569 -0.67409,0.48976 -0.71589,0.47532 -0.91451,-0.31605 z m -5.84568,-0.72386 c -0.19439,-0.34735 -0.15211,-0.98857 0.12132,-1.84 0.23082,-0.71876 0.39393,-1.66684 0.36246,-2.10685 -0.0467,-0.65271 0.0754,-0.78597 0.66279,-0.72378 0.94658,0.10022 0.96564,-0.94935 0.0447,-2.46005 -0.57117,-0.93693 -0.64006,-1.39421 -0.45563,-3.02433 0.32127,-2.83966 0.58002,-3.17914 2.23416,-2.93109 1.21883,0.18278 1.42307,0.11835 1.89157,-0.59667 0.28887,-0.44086 0.52521,-1.09463 0.52521,-1.45283 0,-0.35818 0.144,-0.65125 0.32,-0.65125 0.176,0 0.32,0.595 0.32,1.32223 0,0.7431 0.26877,1.75924 0.61365,2.32 0.77913,1.26681 1.42253,4.78278 1.1673,6.37888 -0.28447,1.77897 -0.97043,2.62673 -2.74211,3.38888 -0.89599,0.38545 -1.93656,1.15548 -2.42268,1.79283 -0.9314,1.22113 -2.13708,1.48758 -2.64273,0.58403 z m -40.05343,-1.22684 c 0,-0.264 0.216,-0.48 0.48,-0.48 0.264,0 0.48,0.216 0.48,0.48 0,0.264 -0.216,0.48 -0.48,0.48 -0.264,0 -0.48,-0.216 -0.48,-0.48 z m -33.715721,-3.52001 c -0.101305,-0.264 -0.04471,-0.48 0.125764,-0.48 0.170476,0 0.309958,0.216 0.309958,0.48 0,0.264 -0.0566,0.48 -0.125763,0.48 -0.06917,0 -0.20865,-0.216 -0.309959,-0.48 z m 37.952341,-4.5289 c -1.6477,-0.81221 -2.95662,-2.5048 -2.95662,-3.82328 0,-0.62144 -0.16335,-1.43512 -0.363,-1.80817 -0.31359,-0.58595 -0.2258,-0.80086 0.64505,-1.57896 0.55443,-0.49538 1.27915,-0.90069 1.61051,-0.90069 0.33134,0 1.4237,-0.432 2.42744,-0.96 1.82004,-0.9574 3.26828,-1.15205 4.96,-0.66668 0.78144,0.22421 0.77401,0.23779 -0.32,0.58523 -0.616,0.19564 -1.57805,0.44725 -2.13789,0.55915 -1.83857,0.36746 -2.24509,1.7623 -0.51363,1.7623 0.78451,0 0.80126,0.0326 0.30112,0.5852 -0.29128,0.32185 -0.5296,0.89221 -0.5296,1.26745 0,0.57647 -0.29769,0.74374 -1.92,1.07882 -2.03537,0.4204 -2.37397,0.87426 -1.24315,1.66632 0.80449,0.56349 1.91724,2.30145 1.64672,2.57197 -0.27207,0.27207 -0.43965,0.23675 -1.60695,-0.33866 z m -20.202078,-1.5511 c -0.425181,-1.44 -0.425181,-1.44 -2.141645,-1.44 -1.57521,0 -1.756442,-0.0773 -2.202304,-0.93952 -0.433939,-0.83914 -0.434064,-0.9913 -0.0013,-1.42418 0.432883,-0.43288 0.361994,-0.50768 -0.663546,-0.70006 -0.981321,-0.1841 -1.284665,-0.0847 -2.087036,0.68404 -0.516356,0.4947 -0.938829,1.08851 -0.938829,1.31958 0,0.52226 -2.274525,0.57761 -2.784378,0.0678 -1.101584,-1.10159 2.184301,-5.13959 4.128487,-5.07348 0.228739,0.008 -0.111124,0.29256 -0.755252,0.63284 -1.253577,0.66225 -2.508857,2.04127 -2.508857,2.75617 0,0.62764 0.326806,0.55312 2.268873,-0.51735 0.952119,-0.52481 1.947127,-0.95762 2.211127,-0.96179 0.264,-0.004 1.02,-0.15755 1.68,-0.34084 0.969965,-0.26937 1.2,-0.48373 1.2,-1.11821 0,-0.70862 -0.132259,-0.78591 -1.36,-0.79469 -1.931427,-0.0138 -0.850349,-0.57629 1.599865,-0.83239 1.498317,-0.1566 2.186452,-0.0654 3.332762,0.44166 1.781882,0.78821 3.785878,2.73903 3.791741,3.69113 0.0026,0.39013 0.08834,1.02242 0.190985,1.40509 0.145751,0.54341 -0.02218,0.80372 -0.766876,1.18882 -0.532746,0.2755 -1.044426,0.8554 -1.159572,1.31417 -0.170073,0.67763 -1.809344,2.07562 -2.439043,2.08005 -0.09358,6.4e-4 -0.361472,-0.6468 -0.595321,-1.4388 z m 22.669998,0.21182 c -0.40993,-0.33194 -0.62657,-0.74964 -0.49729,-0.95883 0.30761,-0.49773 2.11275,0.42094 2.11275,1.07522 0,0.64567 -0.74023,0.59233 -1.61546,-0.11639 z m 15.35257,-1.19941 c -0.28825,-0.34732 -0.71434,-0.44897 -1.34947,-0.32194 -0.69717,0.13943 -1.0602,0.0226 -1.45854,-0.46931 -0.49413,-0.61022 -0.66139,-0.62972 -2.44972,-0.28557 -3.7875,0.72888 -6.1201,0.41107 -6.44361,-0.87791 -0.11517,-0.45885 -0.0546,-1.08212 0.13456,-1.38503 0.28165,-0.451 0.19438,-0.6189 -0.48187,-0.92702 -1.07259,-0.48871 -0.64973,-0.9001 1.29951,-1.26426 1.87199,-0.34973 2.12889,-0.57325 1.13849,-0.99061 -0.59917,-0.25249 -0.41723,-0.28305 0.83354,-0.13998 2.30388,0.26353 2.79075,0.44328 2.59343,0.95749 -0.18583,0.48426 0.73859,1.1971 2.04657,1.57816 0.8,0.23306 0.8,0.23306 0.0242,-0.60668 -0.98097,-1.06186 -0.33173,-1.11951 1.32335,-0.11751 1.16564,0.70569 4.41243,4.4138 4.41243,5.03937 0,0.50482 -1.15905,0.3697 -1.62289,-0.1892 z m -5.28328,-1.60665 c 0.7333,-0.2814 0.64759,-1.40576 -0.10716,-1.40576 -0.65232,0 -0.98789,0.5403 -0.74529,1.2 0.16972,0.46152 0.17968,0.46392 0.85245,0.20576 z m 25.78617,-2.20576 c 0,-0.88106 1.12351,-2.21449 1.61167,-1.91279 0.53965,0.33352 0.33291,1.29814 -0.43229,2.01701 -0.95441,0.89661 -1.17938,0.87673 -1.17938,-0.10422 z m -17.60207,-3.33899 c -0.44114,-0.13419 -1.29108,-0.49685 -1.88876,-0.80593 -1.9497,-1.00823 -11.35508,-1.57913 -13.95674,-0.84717 -1.93189,0.54353 -6.7374,0.82945 -6.99288,0.41607 -0.30032,-0.48592 1.30152,-1.92806 2.94676,-2.65297 2.22495,-0.98033 6.24249,-1.89101 8.34241,-1.89101 1.06815,0 2.55889,-0.16497 3.31274,-0.36659 1.32571,-0.35457 1.48828,-0.30999 4.95888,1.36 2.75483,1.32558 3.67066,1.9256 3.94318,2.58346 0.19523,0.47127 0.62641,1.10252 0.95817,1.40276 1.0489,0.94924 0.21511,1.36074 -1.62376,0.80138 z m -40.957929,-2.30832 c -0.44,-0.1797 -2.504877,-0.40836 -4.588618,-0.50812 -2.751718,-0.13173 -3.833945,-0.2995 -3.954236,-0.61297 -0.09109,-0.23738 -0.374711,-0.4316 -0.630269,-0.4316 -0.255555,0 -0.375651,-0.144 -0.266877,-0.32 0.108774,-0.176 0.612774,-0.32 1.12,-0.32 0.507226,0 0.999504,-0.12504 1.093955,-0.27786 0.208794,-0.33783 3.819005,-0.83939 5.135411,-0.71345 0.522151,0.05 1.638151,0.43986 2.48,0.86646 1.312116,0.6649 1.530634,0.91192 1.530634,1.73024 0,1.04259 -0.460426,1.18343 -1.92,0.5873 z M 129.53827,84.497663 c -0.21859,-0.353673 0.28621,-0.735568 0.5817,-0.44008 0.30425,0.304253 0.24755,0.737968 -0.0965,0.737968 -0.16562,0 -0.38397,-0.134051 -0.48522,-0.297888 z"
       id="path943"
       inkscape:connector-curvature="0" />
  </g>
</svg>
